<svg xmlns="http://www.w3.org/2000/svg" viewBox="0 0 306.96 79.93"><defs><style>.cls-1{fill:#7f79b4;}.cls-2{fill:#f7f9f2;}</style></defs><g id="Layer_2" data-name="Layer 2"><g id="Layer_1-2" data-name="Layer 1"><path class="cls-1" d="M265.68,75.09S42,85.8,16.37,75.35c-12.3-5-14.92-13-15-21.64L0,25.3C-.08,16.61,6.3,7.6,18.05,7.73A659.16,659.16,0,0,0,96.46,3.5c41.22-4.86,174-3.24,174-3.24,7.35-.07,29.28,1.47,35.34,21.22a74.33,74.33,0,0,1-.74,30C301.25,67.64,287.88,72.4,265.68,75.09Z"/><path class="cls-2" d="M26.77,56.54,26,30.39l17.87-.53L44,35l-12,.35.15,5.1,9.29-.28.15,5-9.29.27.17,5.65,12.82-.38L45.51,56Z"/><path class="cls-2" d="M49.51,55.86l-.78-26.14,5.65-.17L66.21,46.19l-.5-17L71.55,29l.77,26.15L67,55.35,54.84,38.41l.51,17.28Z"/><path class="cls-2" d="M84.16,54.84l-.62-20.93-8.47.25L74.92,29l22.85-.68.15,5.21-8.42.25.62,20.93Z"/><path class="cls-2" d="M101.91,54.31l-.77-26.14L119,27.64l.15,5.17-12,.36.15,5.09,9.29-.27.15,5-9.29.27.17,5.65,12.82-.38.15,5.21Z"/><path class="cls-2" d="M124.65,53.64l-.77-26.14,9.72-.29a10.47,10.47,0,0,1,5.13,1,7.45,7.45,0,0,1,3.14,2.88A8.35,8.35,0,0,1,143,35.13a8.7,8.7,0,0,1-1,4.46A8.07,8.07,0,0,1,139,42.74L145.07,53l-6.51.19-5.14-9.46-3.29.1.28,9.6ZM130,39.12l3.64-.1A3.46,3.46,0,0,0,136.19,38a3.78,3.78,0,0,0-.17-5,3.54,3.54,0,0,0-2.59-.86l-3.65.11Z"/><path class="cls-2" d="M162.28,52.53l-.62-20.93-8.47.25L153,26.63,175.89,26l.16,5.21-8.43.25.62,20.93Z"/><path class="cls-2" d="M191,52.35a13.93,13.93,0,0,1-5.4-.88,13.25,13.25,0,0,1-7.43-7.1,14.91,14.91,0,0,1-.32-10.84,13.46,13.46,0,0,1,2.73-4.45,13.1,13.1,0,0,1,4.25-3,13.92,13.92,0,0,1,5.36-1.2,13.75,13.75,0,0,1,5.4.88A13.17,13.17,0,0,1,200,28.5a13.37,13.37,0,0,1,3,4.29,14.92,14.92,0,0,1,.32,10.84,13.29,13.29,0,0,1-7,7.52A13.74,13.74,0,0,1,191,52.35Zm-.16-5.57a6.84,6.84,0,0,0,3.94-1.25,7.37,7.37,0,0,0,2.46-3.1,10,10,0,0,0-.24-8.21,7.25,7.25,0,0,0-2.64-2.9,7.65,7.65,0,0,0-7.95.23,7.38,7.38,0,0,0-2.48,3.06,9.11,9.11,0,0,0-.78,4.12,9.33,9.33,0,0,0,1,4.09,7.42,7.42,0,0,0,2.66,2.94A6.81,6.81,0,0,0,190.79,46.78Z"/><path class="cls-2" d="M208.61,51.16,207.84,25l9.88-.29A17.57,17.57,0,0,1,225,25.9,10.82,10.82,0,0,1,230,30.06a14.23,14.23,0,0,1,2,7.46,13.13,13.13,0,0,1-1.61,7.24,11.25,11.25,0,0,1-4.85,4.46,17.22,17.22,0,0,1-7.15,1.65Zm5.76-5.43,3.61-.11a8.23,8.23,0,0,0,6-2.25,7.56,7.56,0,0,0,1.95-5.71,8.35,8.35,0,0,0-2.14-5.72q-2-2.11-6.25-2l-3.61.11Z"/><path class="cls-2" d="M233.07,50.43l9-26.43,6.54-.19,10.34,25.86-6.47.19-2.17-5.94-9.22.28-1.82,6Zm9.25-10.86,6.43-.19-3.47-9.79Z"/><path class="cls-2" d="M264.55,49.5l-.33-10.93L254.6,23.63l6.7-.2,6,9.71,5.23-10,6.43-.19-8.72,15.44.32,11Z"/></g></g></svg>