<svg xmlns="http://www.w3.org/2000/svg" viewBox="0 0 51.92 56.62"><defs><style>.cls-1{fill:#f9ce57;}</style></defs><g id="Layer_2" data-name="Layer 2"><g id="Layer_1-2" data-name="Layer 1"><path class="cls-1" d="M32,49.57c-3.32.4-6.6,1.08-9.93,1.5s-6.55.71-9.84.89c-1.68.09-3.36.14-5,.2L5,52.21c-.58,0-1.25-.25-.47.37l.14.32a3.45,3.45,0,0,1-.07-.55,33.33,33.33,0,0,1,1-9.64L1.94,44.2a15,15,0,0,0,4.19,1.93c1.52.42,3.07.74,4.62,1.06,2.23.46,4.41,1.09,6.6,1.72s4.3,1.27,6.44,1.92l3.54,1.09c.7.21,1.42.4,2.13.59a5.1,5.1,0,0,0,1.65.27,4.84,4.84,0,0,1,.93,0c2.3.36,3-2.92,1-3.86A20,20,0,0,0,31,47.82c-.58-.2-1.16-.4-1.74-.57l-3.55-1.06q-3.23-.94-6.46-1.85C17,43.7,14.66,43,12.32,42.53A36.25,36.25,0,0,1,4.2,40.34a2.29,2.29,0,0,0-3.11,1.8A41.5,41.5,0,0,0,.18,48a20.59,20.59,0,0,0,0,5.49,4,4,0,0,0,1.31,2.38,4.58,4.58,0,0,0,3.29.73c1.86-.05,3.72-.15,5.58-.33q5.57-.52,11.07-1.52a70.91,70.91,0,0,0,11.23-2.7A1.3,1.3,0,0,0,32,49.57Z"/><path class="cls-1" d="M39,38.35c-5.71-5.08-11.7-9.72-17.83-14.26L16.5,20.62,14.26,19A10.91,10.91,0,0,0,13,18l-.32-.24c0,2,.21,2.55.62,1.61.61-.78,1-1.79,1.58-2.63s1-1.49,1.55-2.2,1-1.24,1.55-1.82c.35-.38.71-.74,1.08-1.1l.56-.53c.46-.37.36-.37-.31,0L18,11.07c-.31-.06-.19-.15.07.13s.51.54.75.83A12.54,12.54,0,0,1,20,13.59c.8,1.3,1.49,2.65,2.17,4a63.78,63.78,0,0,0,4.46,7.73c3.32,4.83,7.12,9.38,9.21,14.93L39.36,37a38.76,38.76,0,0,1-7.59-6.82c-2.47-2.66-5-5.25-7.72-7.66q-2.13-1.87-4.35-3.65c-.68-.54-1.37-1.07-2.06-1.59a6.35,6.35,0,0,0-.65-.51c-.13,0-.15-.18,0,0L17,17q-.08-.39,0-.12c-.22.22.17-.17,0-.11.05,0-.13.41,0,.08,0-.06.22-.51.1-.26s.09-.13.09-.14c.16-.2.29-.43.44-.63.32-.43.14-.16.06-.07.11-.13.23-.25.35-.37.47-.47.43-.28-.44-.32L17,15,16.84,15c-.09.06-.05-.4,0,0a5,5,0,0,0,.67,1.18l.81,1.4C20.44,21.23,22.49,25,25,28.44a2.26,2.26,0,0,0,3,.34,2.3,2.3,0,0,0,.76-2.9,133.13,133.13,0,0,0-6.37-11.74c-1-1.81-2.12-4.05-4.54-4.09-2,0-3.63,1.77-4.69,3.31a5.93,5.93,0,0,0-1,4.91c.63,2.18,2.73,3.3,4.42,4.6a90.29,90.29,0,0,1,9.63,8.6c3.35,3.44,6.54,7.11,10.59,9.77a2.52,2.52,0,0,0,3-.26,2.61,2.61,0,0,0,.55-3c-2-5.55-5.77-10.15-9.12-14.9A54.28,54.28,0,0,1,26.92,16a35.2,35.2,0,0,0-4.63-7.67C21.19,7.12,19.84,5.81,18,6.26c-1.49.37-2.73,1.93-3.73,3A32.53,32.53,0,0,0,9,16.71c-.75,1.5-1.19,3.06,0,4.49A19.89,19.89,0,0,0,12.94,24c2.46,1.66,4.93,3.3,7.39,4.95q8.49,5.72,17,11.33c1.17.77,2.74-1,1.64-1.94Z"/><path class="cls-1" d="M50.07,27.61a69.91,69.91,0,0,0-3.34-7.77c-1.17-2.57-2.3-5.16-3.41-7.76-.53-1.23-1-2.48-1.56-3.72-.28-.69-.56-1.37-.83-2.06a4.49,4.49,0,0,0-.36-.94c.19.22,0,.44-.48.67-.65.54-.75.74-.32.58a8,8,0,0,0,2.14-.55l1.94-.5,1.94-.5L47,4.77l.39-.08c.4-.05.32-.08-.25-.08l-1-.73c-.22-.46-.27-.43-.18.08l.06.8c0,.53.07,1.07.11,1.6.07.93.13,1.87.19,2.8.13,2,.25,4,.35,6,.22,4,.33,8,.61,12a2.36,2.36,0,0,0,2.6,2,2.39,2.39,0,0,0,2-2.6c0-4.41-.27-8.83-.53-13.24q-.2-3.32-.43-6.61c-.14-2.09.23-5.46-2.05-6.51a4.31,4.31,0,0,0-3.12.08c-1,.28-2.06.51-3.09.76l-2.92.71c-1.33.32-2.68.62-3.34,2-.91,1.92.58,4,1.37,5.74,1,2.08,1.94,4.16,3,6.21s2.2,4.33,3.34,6.47a43.52,43.52,0,0,0,3.94,6.56,1.19,1.19,0,0,0,2-1.18Z"/></g></g></svg>