<svg version="1.1" id="Layer_1" xmlns="http://www.w3.org/2000/svg" x="0" y="0" viewBox="0 0 600 310.1" style="enable-background:new 0 0 600 310.1" xml:space="preserve"><style>.st0{fill:#f8f9f2}.st1{fill:#bfbbd9}</style><g id="Gerber_Logo_00000065043881276312675340000001162541649203523997_"><g id="Gerber_8_"><path class="st0" d="M208 3h7.6v18h-9.8v-.6c0-3.1-1.7-13.8-15.1-13.8-14.2 0-18.5 12.2-18.5 24s4.1 24.2 17.6 24.2c10.1 0 13.4-5.8 13.4-6.1v-13h-9.8V29h24.1v30.7H211s-3.1-4.1-3.6-4.9c-.4-.7-5.3 6.6-17.9 6.6-12.6 0-33.3-7-33.3-30C156.1 9.3 175.6 0 187.8 0 200 0 206.5 6.2 208 7.3V3M270.2 43.1c1-7.9-4.2-21.6-21.5-21.6-12.4 0-23.7 6.8-23.7 20.5 0 13.8 10.7 20.1 23.6 20.1 10.8 0 15.7-4.2 16.9-5.2l-.4-8.6c-2.1 2.2-6.7 6.5-13.8 6.5-7.9 0-12.8-2.7-13.1-11.7h32zm-32-5.8c.4-5.7 4.2-9.5 9.9-9.5 6.4 0 9.2 5.1 9.2 9.5h-19.1zM274.7 23.3V29h5.2v25.1h-5.2v6.7h23.2v-6.7h-5.1V40.8c0-3.7 1.7-10.5 7.1-11.3.4-.1.2 1.1.2 3.1 0 2.1 1 7.1 6.9 7.1 5.8 0 6.8-5.3 6.8-7.5 0-2.3-.2-10.2-10-10.2-8.3 0-12.3 7.5-13.5 9.5v-8.3l-15.6.1zM415.8 43.1c1-7.9-4.3-21.6-21.6-21.6-12.3 0-23.7 6.8-23.7 20.5 0 13.8 10.7 20.1 23.6 20.1 10.8 0 15.6-4.2 16.8-5.2l-.4-8.6c-2.1 2.2-6.7 6.5-13.7 6.5-8 0-12.9-2.7-13.2-11.7h32.2zm-32.1-5.8c.4-5.7 4.3-9.5 10-9.5 6.4 0 9.2 5.1 9.2 9.5H383.7zM420.1 23.3V29h5.3v25.1h-5.3v6.7h23.2v-6.7h-5.2V40.8c0-3.7 1.8-10.5 7.1-11.3.4-.1.2 1.1.2 3.1 0 2.1 1.2 7.1 6.9 7.1 5.8 0 6.9-5.3 6.9-7.5 0-2.3-.2-10.2-10-10.2-8.4 0-12.3 7.5-13.5 9.5v-8.3l-15.6.1zM344.3 22.4c-6.6 0-10.2 2.5-12.5 4.7V3.9h-17.4v5.8h5.7v44.4h-5.8V61h16v-4.7c3.7 3.6 6.4 5.6 14.6 5.6 7.7 0 20-4.1 20-19.8 0-15.4-12.4-19.7-20.6-19.7m-3.7 32.5c-4.7 0-8.7-3.4-8.7-4.3V33.7c1.2-1.9 3.8-4.7 8.7-4.7 3.9 0 10.5 2.6 10.5 12-.1 10.6-5.8 13.9-10.5 13.9"/><path class="st0" d="M450.3 53.2c0-3.7 2.3-7.9 8-7.9 5.2 0 8 3.8 8 7.9 0 4.4-3.1 8-8 8-5.6 0-8-4.2-8-8zm2 0c0 3.6 2.4 6 5.9 6 3.6 0 6-2.5 6-6.1 0-3.6-2.5-5.9-6-5.9-3.6.1-5.9 2.5-5.9 6zm4.1 4.4h-1.9V49h4.8c1.8.1 2.9.7 2.9 2.6 0 1.6-.8 2.2-2.3 2.3l2.1 3.6h-2.2l-1.9-3.4h-1.5v3.5zm2.5-4.9c.9 0 1.4-.2 1.4-1.3 0-.9-1-1-1.9-1h-2.1v2.2l2.6.1z"/></g></g><path class="st1" d="M245.1 127.9v-4.3c0-1.7.3-3.2 1-4.5.7-1.3 1.5-2.6 2.6-3.7s2.2-2.1 3.4-3.1c1.2-.9 2.3-1.8 3.4-2.6s1.9-1.6 2.6-2.4c.7-.8 1-1.6 1-2.4 0-.8-.3-1.6-1-2.3-.6-.7-1.7-1.1-3.2-1-1 0-1.8.2-2.5.6-.7.4-1.3.9-1.8 1.4-.5.6-.9 1.1-1.2 1.5l-5.3-3.7c.6-1 1.4-2 2.4-2.9s2.3-1.7 3.8-2.3c1.5-.6 3.3-.9 5.4-.9 2.4 0 4.4.4 6 1.3 1.6.9 2.8 2 3.6 3.4.8 1.4 1.2 2.8 1.2 4.3s-.3 2.9-.9 4.1c-.6 1.2-1.4 2.3-2.4 3.3s-2 1.9-3.1 2.8c-1.1.9-2.2 1.7-3.2 2.4-1 .8-1.8 1.5-2.4 2.2-.6.7-.9 1.5-1 2.3h13.2v6.4l-21.6.1zM285.7 128.5c-2.7 0-5-.7-6.9-2.1-1.8-1.4-3.2-3.4-4.2-5.9-.9-2.5-1.4-5.4-1.4-8.8 0-3.3.5-6.2 1.4-8.6.9-2.5 2.3-4.4 4.2-5.8s4.2-2.1 6.9-2.1c2.8 0 5.2.7 7 2.1 1.8 1.4 3.2 3.3 4.1 5.8.9 2.5 1.4 5.4 1.4 8.6 0 3.3-.4 6.2-1.3 8.8s-2.3 4.5-4.1 5.9c-1.9 1.4-4.3 2.1-7.1 2.1zm0-6.5c1.2 0 2.2-.5 3-1.4.7-.9 1.3-2.1 1.6-3.7.3-1.6.5-3.3.5-5.2 0-1.9-.2-3.6-.5-5-.4-1.5-.9-2.7-1.7-3.5-.8-.9-1.8-1.3-3-1.3s-2.2.4-2.9 1.3c-.8.9-1.3 2.1-1.6 3.5-.3 1.5-.5 3.2-.5 5.1 0 1.9.2 3.6.5 5.2.4 1.6.9 2.8 1.7 3.7.7.8 1.7 1.3 2.9 1.3zM303.9 127.7v-4.3c0-1.7.3-3.2 1-4.5.7-1.3 1.5-2.6 2.6-3.7s2.2-2.1 3.4-3.1c1.2-.9 2.3-1.8 3.4-2.6s1.9-1.6 2.6-2.4c.7-.8 1-1.6 1-2.4 0-.8-.3-1.6-1-2.3-.6-.7-1.7-1.1-3.2-1-1 0-1.8.2-2.5.6-.7.4-1.3.9-1.8 1.4-.5.6-.9 1.1-1.2 1.5l-5.3-3.7c.6-1 1.4-2 2.4-2.9 1-.9 2.3-1.7 3.8-2.3 1.5-.6 3.3-.9 5.4-.9 2.4 0 4.4.4 6 1.3 1.6.9 2.8 2 3.6 3.4.8 1.4 1.2 2.8 1.2 4.3s-.3 2.9-.9 4.1c-.6 1.2-1.4 2.3-2.4 3.3s-2 1.9-3.1 2.8c-1.1.9-2.2 1.7-3.2 2.4-1 .8-1.8 1.5-2.4 2.2-.6.7-.9 1.5-1 2.3h13.2v6.4l-21.6.1zM333.3 127.6v-4.3c0-1.7.3-3.2 1-4.5.7-1.3 1.5-2.6 2.6-3.7s2.2-2.1 3.4-3.1c1.2-.9 2.3-1.8 3.4-2.6s1.9-1.6 2.6-2.4c.7-.8 1-1.6 1-2.4 0-.8-.3-1.6-1-2.3-.6-.7-1.7-1.1-3.2-1-1 0-1.8.2-2.5.6-.7.4-1.3.9-1.8 1.4-.5.6-.9 1.1-1.2 1.5l-5.3-3.7c.6-1 1.4-2 2.4-2.9 1-.9 2.3-1.7 3.8-2.3 1.5-.6 3.3-.9 5.4-.9 2.4 0 4.4.4 6 1.3 1.6.9 2.8 2 3.6 3.4.8 1.4 1.2 2.8 1.2 4.3s-.3 2.9-.9 4.1c-.6 1.2-1.4 2.3-2.4 3.3s-2 1.9-3.1 2.8c-1.1.9-2.2 1.7-3.2 2.4-1 .8-1.8 1.5-2.4 2.2-.6.7-.9 1.5-1 2.3h13.2v6.4l-21.6.1z"/><path class="st0" d="M4.5 223c-.4-.2-.6-.3-.8-.3-2.8-1.2-4.2-3.1-4.2-5.6v-3c0-2.9 0-5.8.2-8.8l.1-1.3c.2-2.7.3-5.1.2-7.3-.1-1.7-.2-3.9.2-6.3.8-4.8.8-9.8.8-14.7-.1-2.1-.1-4.1 0-6.2v-3.7c.1-3 .1-5.8.2-8.8 0-1.3.5-2.5 1.6-3.4.9-.8 2.4-1.3 3.8-1.2 1.7.2 3.5.1 5.3 0 1.4-.1 3-.2 4.6-.1 11.4.3 20 5.8 25.1 15.9 1.4 2.7 2 5.7 1.7 8.9-.9 12.1-8.6 22.6-19.3 26.4-2.8 1-5.5 1-7.9.1l-2.5-.9c-.4-.2-.8.1-.9.5L12 215c-.1.6-.1 1.3 0 1.7v2c-.1 1.4-.9 2.7-2.2 3.6-.7.6-2.1 1.1-3.2 1.1-.7 0-1.6-.2-2.1-.4zm16.8-29.3c4.5-3.5 7.3-8.8 8.6-16.2.9-6-2.2-11.8-7.8-14.7-2.1-1-3.9-1.2-6.1-.6-1.5.4-2.1 1.2-2.2 2.7l-.5 11.3-.2 4.8c-.1 3.7-.2 6.9-.1 10 0 .4.2.8.4.9l1.1.6c.9.7 1.6 1.2 2.2 1.6 2 1.3 2.8 1.3 4.6-.4zM59.1 217.2c-.8-1.6-1.4-3.4-2.2-5.8-2-8.3-3.6-16.6-5-24.9-1.3-8.1-2.4-16.5-3.3-26.1-.2-1.1-.2-2.2.1-3.7.1-.7.7-1.5 1.4-2.2 3.8-3 10.8-.3 11.6 4.4.3 1.7.4 3.5.6 5.1l1.8 17.6c.2 1.5.5 1.7 1.3 1.5 6.3-1.3 12.6-1.7 19-1 1.3.2 2.5.1 3.9.1.4 0 .7-.3.7-.7-.1-3.5-.9-6.8-2.7-11.4-1.5-4.1-3.3-7.9-4.9-11.9.4-1.5 1.2-2.3 3-2.6 1.6-.5 3.5-.7 5.4-.7 1.8 0 3.6.9 4.4 2.2.9 1.5 2 3.1 2.5 4.7 3 6.6 5 13.3 6 20.6 1.1 7.6 2.3 15 3.4 22.6.4 2.5.9 4.8 1.4 7.4.3 2.1-2 4.2-4.2 4.4-2.6.3-5.4-.7-8-2.9-1.5-4-2.4-8-2.7-11.9-.3-3.6-.8-6.9-1.7-9.9-2.5-.9-5-.7-8-1-2.2-.2-4.7-.1-7.3.2-2 .2-4.3.6-7.1 1.4-1.3.3-1.8.7-2.3 1.4 1.3 7.8 2.4 15.7 5.9 22.9.4.5.5 1.4.5 2.2 0 1-1.1 2.3-2.1 2.8-5.2 1.2-9.6-.7-11.4-4.8zM130.3 220.6c-3.4-1.1-6.6-2.8-9.3-5-3.4-2.9-5.5-5.9-6.3-9.5-1.8-7.6-2-11.6-1.9-14.5.6-9.8 2.4-19.4 5.4-28.5.7-2 1.8-3.1 3.6-3.6 2-.5 3.6-1.6 5.6-4 2.7-3.1 6.7-2.9 9.4-2.4 4.8 1 9.2 3 13.8 6.7 3.7 3 6.3 6.5 8.2 10.9 2.3 5.3 3.2 10.5 2.7 16-.4 4.9-1.9 9.9-4.3 15.4-.4.7-.9 1.6-1.3 2.3-.5.8-.9 1.4-1.2 2.2-2.1 5-6.5 8.8-11.1 12.2-2.1 1.7-5 2.6-8 2.6-1.8 0-3.7-.2-5.3-.8zm5.6-9.3c1.4-1.5 3-3.1 4.3-4.9 2.9-4 4.8-7.4 6.2-10.5 1.8-3.8 2.7-7.4 2.7-10.9v-.3c1.4-3.9.8-7.5-1.9-12.4l-1.4-2.7c-.2-.5-.5-1.1-.9-1.5-2-1.8-4.2-2.9-5.7-3.9-1.8-1.1-2-1.1-4.2.6-.2.2-.5.4-.8.6-1.9 1.3-2.7 1.8-4 2.5-1.3.7-2.1 1.5-2.3 3v.3c-.4 2.2-.9 4.5-1.4 6.8-1.2 4.6-1.5 9.6-1.3 17.2.1.8.3 1.6.4 2.5.4 2.4.7 4.6 1.1 6.4.7 3.1 2.3 5.6 4.5 7.4 1.7 1.4 2.9 1.4 4 .3 0 0 .4-.2.7-.5zM190.7 221.1c-.6-1.4-1.4-3-1.7-4.6l-.3-1.1c-.9-3.8-1.7-7.6-2.2-11.5-.5-3.5-.8-7.1-1.2-10.4-.3-2.3-.5-4.5-.7-6.6-1-8.8-1.4-11.3-3.7-19.1-1-.2-2-.1-3.1 0-.8.1-1.6.1-2.2.1h-1.7c-1.6 0-3.4-.1-5.2-.3-3.3-.5-6.1-3.7-6.2-7.1 0-1.3.9-2.3 2.1-2.8 1-.5 2.1-.7 3.5-.8 8.4-.7 17-2 25.4-3.4l5-.8c4.2-.7 9-1.2 13.7-.7 1.8.2 3.5 1.2 4.6 2.7.8 1.3 1 2.7.5 4.1-.4 1.2-1.4 2.1-2.7 2.3-2.7.8-5 1.4-7.3 1.7-2.1.5-4.7.9-7.5 1.4l-3.9.6c-.8.2-1.1.6-.9 1.4 1 4.7 1.2 6.2 1.6 9.5.1 1.2.3 2.5.6 4.4.6 5.3 1.1 11 1.8 17.9.5 5.7 1.5 11.5 2.9 17.4.2 1 .4 2 .6 3.8.3 2.4-1.6 4.5-4.2 5-.3 0-.9.1-1.3.1-3 .3-5.4-1.1-6.3-3.2zM237 219.2c-8.8-5.7-14.5-13.1-17-22.4-1.7-6.5-1-13.1.3-19.4 1.3-6.5 4.3-12.9 9-19.5.8-1.2 2.4-2.2 4.3-3.1 2.4-.8 5.1-1.5 7.6-2.3 12-3.3 27.1 4 32.5 15.7 3.2 6.8 4.7 13.8 4.5 21.7.7 4.7-1 9.6-5.2 15.5-3.3 4.4-7.3 8.4-12.2 12-3.2 2.4-7 4-11 4.5-4.8.6-9.1-.2-12.8-2.7zm24.5-19.8c2.2-2.7 3.5-5.5 3.6-8.3.9-8.8-.2-15.1-3.7-21-2.2-3.7-5.7-6.1-11.6-7.9-1.6 1.5-2.9 3-5.5 4.7-2.5 1.5-5.6 2.5-8.6 3.8-1.2 2.2-2.3 4-3 6.2-3.8 10.8-1.8 21.2 6 31.1 4 4.9 6.5 5.4 12.1 1.9 4.8-3.2 7.1-5.9 10.7-10.5zM333.2 222.2c-3.3.1-6.3-.2-8.9-1.4l-1.8-.8c-2.4-1.1-5.2-2-7.4-3.8-4.8-3.9-7.6-8.9-8.4-14.8-.1-1.1-.1-1.6-.2-2.1l-.1-.7c-.8-2.7-.2-5.5.3-7.8l.1-.4c.7-3 3.5-4.9 6.6-4.4.8.2 1.5.3 3 .8l.4.2c1.6.6 2.6 2.1 2.7 3.8 0 1.2-.1 2.2-.3 3.3v1c-.5 4.7.6 9 3.1 12.5 1.8 2.6 4.2 4.1 7.7 4.8.9.2 1.5-.1 2.7-1.4 1.3-1.3 2.3-3.4 3-5.8.5-2.2.8-4.8.5-7.5-.3-2.9-1.3-5-3.1-6.8-2.3-2.4-4.3-3.9-6.4-4.9l-2.5-1.2c-2.2-1-4-1.9-5.6-2.5-3.5-1.4-6.3-3.7-8.8-7.3-3.2-4.7-3.3-9.8-.2-15.1.8-1.4 1.5-2.2 2.5-3.6.2-.2.5-.5 1-1.2 1.5-1.8 3.8-3 6.4-3.2l2.6-.3c1.1-.1 2.3-.3 3.6-.4 3.7-.3 7.6.9 11.7 3.3 2.1 1.2 3.7 3.2 4.7 5.9.8 2.3 1.1 4.7.8 7.2-.4 2.4-2.9 4.3-5.5 4-1.3-.1-2.4-.4-3.2-.7-1.7-.6-3-1.6-3.7-3-.6-1.8-1.2-3.8-1.8-5.6-.1-.3-.2-.4-.6-.7-1.4-.6-3.9.2-5 1.9l-.7 1.1c-1 1.4-1.4 2.9-1.2 4.4.5 1.9 1.6 3.7 3.4 4.8 1.2.8 2.5 1.1 3.7 1.7l.2.1c5.2 2.6 10.2 4.7 14.3 8.2 3.4 2.9 5.6 6.3 6.6 10.3 1.9 8.4.3 16-4.9 22.6-2.1 2.9-5.3 4.8-9.1 5.2l-2.2.3zM360.1 213.2c-2.2-3.2-3.5-6.4-3.5-9.8v-3.6c0-3 1-11.7 1.7-16.9.9-6.6 1.8-13.3 2.7-20.2.3-1.7.4-2.5.8-3.3.4-1.3 1.8-2.5 3.1-2.7 4.7 0 9.1-2.5 14.4-3.6 2.5-.5 5.1-1 7.6-1.5 2.9-.4 5.6.4 7.7 1.3 1.1.4 1.6 1.2 2.2 2.5.8 1.4.5 3-.8 3.9-1 .5-2.1 1.5-3.9 2-2.6.8-5.4 1.4-8.1 2.1-4.4 1.1-7.3 2.4-10.1 4.2-1.1.7-1.6 1.5-1.8 2.8-.3 1.8-.6 3.7-.7 5.7 0 .5.4.8.8.6 2.7-.8 5.6-1.8 8.6-2.7 2.4-.7 5-.7 7.1.1 1.6.5 3 2.4 2.8 4-.1 1.1-.4 2.1-1 2.8-.4.7-1.4 1.4-2.5 2-1.7.8-3.7 1.6-5.7 2.3-3.7 1.5-6.9 3.1-9.9 5-1.6.9-2.3 1.7-2.5 3.3-.4 2.4-.8 4.8-1 7.3-.3 2.8.1 5.6 1.3 7.9 1 2 1.8 2.7 3.2 2.8 3 .1 4.4-.1 6-.8 1.8-.8 2.6-1.1 3.7-1.5 2-.6 4.4.1 5.4 1.9 1.4 2.1 1.2 4.5-.5 6.2-.9.8-1.5 1.3-2.2 1.7-8.2 4.7-19.7 2-24.9-5.8zM434.2 218c-1.1-1.2-1.6-2.4-1.6-4v-.7c0-5.8.1-6.9.1-7.2v-2.4c0-1.7.1-3.6 0-5.3-.3-4.2-.5-4.3-4.4-4.6-.5-.1-1-.2-1.3-.1-2.3-.4-4.6-.4-6.5-.4-2.5 0-5.1.2-7.8.6-.7.2-1.3.8-1.6 1.9-.6 1.9-1.2 3.9-1.7 5.9l-1.7 6.7-.5 1.8c-.4 1.5-.8 3.1-1.4 4.9-.6 2.2-3.3 3.6-5.6 3.2-.5-.1-1.4-.3-2.2-.7-2.1-1.1-3.3-2.9-3.3-4.9v-.7c0-1.5.2-3.1.5-4.6.1-.6.3-1.3.4-1.8 1.7-7.2 3.5-14.7 6.1-22 2.3-6.4 5.5-12.7 9.7-19.7 1.2-1.8 2.9-3.6 4.5-5.5l.7-.8c1.1-1.3 2.8-1.9 4.7-2.3 3.9-.7 6.6-.6 9.1.6 2.4 1.2 4.2 3.3 6 7 2.5 4.9 4.5 10.3 6.1 16.6 2.4 9.8 3.6 19.3 3.5 28.8-.2 3.3-.5 5.7-1.3 8.1-.7 2.2-2.9 3.7-5.2 3.7-2.1-.2-4.1-1-5.3-2.1zm-5.2-33.7c.5 0 .8-.3.7-.8-.3-3-.9-5.7-1.9-8.8-.9-2.4-2-4.8-3.3-7.2-.3-.5-.7-.4-1-.1l-1.6 2.1-.4.5c-3.9 6-5.7 10-5.8 12.8 0 .5.4.6 2.8.7.5 0 1.2 0 1.8.1 2.4.3 5 .3 7.4.5l1.3.2zM496.1 222.5c-2-.4-3.7-1.2-4.8-2.5-2-1.9-3.9-3.4-7.5-6.1-1.3-1-2.8-2-3.8-2.8l-2.2-1.6c-2.4-1.9-4.9-3.8-7.2-5.7-1.3-1.2-2.4-2.1-3.4-3.3-.4-.4-.8-.3-.8.4.1.6.1 1.1 0 1.6 0 3.5 0 6.5.9 9.5.6 1.6.5 3 .7 3.9v1c0 1-.4 2-1.2 2.9-.8.9-2.4 1.7-3.7 1.8-3.6.2-6.8-2-7.6-5.2-.6-2.1-1-4.2-1.3-6.5-.3-5.2-.2-10.2.1-16.3.2-3.4.2-6.2.1-9l-.3-5.9c-.2-3.3-.1-6.1-.3-8.6-.2-2.7-.6-5.5-1.1-8.1l-.6-3.6c-.2-2 .9-3.8 2.5-4.5 4.5-1.9 9.5-3.6 14.3-2.2 3.5.5 6.5 1.6 9.6 3.5 4 2.5 7.2 5.4 9.8 8.8 3 3.8 4.7 8.2 5.1 13.3.1 2.3-.3 4.3-1.4 6.4-2.8 5.8-7.9 9.5-14.7 10.4l-.7.1c-.5.1-.7.5-.4.9 2.2 2.3 4.7 4.6 7.6 6.7 5.2 3.7 9.6 7.1 13.5 9.9 1.3 1 2 1.9 2.8 2.5l.5.4c1.5 1.6 1.8 3.6.7 5.6-.6 1.3-2.6 2.2-4.3 2.3-.2.1-.7 0-.9 0zm-15.6-46.3c.8-5.8-3.9-12.6-9.5-14-1.3-.4-1.8-.4-2.2-.4-.7 0-1.4.2-2.4.6-.4.2-.6.5-.6 1.3 0 6.9 1.2 12.5 1 18.4 0 .9.3 1.3.8 1.7 2.4 1.3 4.8 1.4 7.5.1 2.9-1.5 4.9-4.3 5.4-7.7zM505.3 207.9c-1.4-2.9-1.6-5.7-2-8.3-.2-1.1-.3-2.1-.4-4 .3-2.2.3-5 1-7.9 2.8-11.1 6.9-22 14.3-31.5.7-1 1.4-1.9 2.3-2.7 1.8-1.5 4.3-2.4 6.5-2.3 8 .7 13.5 4.9 16 12.2.4 1 .5 1.7.7 2.3 1.1 3.7.4 7.2-2.1 11.2-.5 1-2.2 1.9-3.5 1.9-2.5 0-4.9-1.2-6.4-3.1-.7-.8-1.2-2-1.1-3 .1-2 .5-3.8.7-5.6 0-1.3-.2-2.6-.5-3.7-.3-1.2-.5-1.4-.9-1.4-.5.1-1.2.5-1.6 1.3-2.2 3.3-4.1 5.9-6 9.7-3.2 6.6-5.4 13.5-6.6 20.5-.9 4.9-.5 8.8 1 12 .8 1.6 1.4 2.5 2 3.1 2 2.4 4.8 3.2 7.6 2.1.4-.2.9-.5 1.6-1 .8-.6 1.7-1.6 3-2.7 2.1-1.9 5.8-1.6 8.2.5 1.5 1.3 2.2 3.4 1.5 5.2-1.4 3.7-4.3 6.3-8.2 7.2-10.6 2.9-22-2-27.1-12zM555.4 220c-1.2-.8-2.2-2.1-2.6-3.4-.9-2.9-.9-5.6-.8-8.2.1-5 0-10 0-14.5v-4.5l-.3-6.9c-.2-5-.5-9.5-.6-13.9l-.6-6.5c-.1-1.2-.3-2.2-.4-3.4 0-.9-.1-1.5-.1-2.4 0-1.1.6-2.2 1.8-3 1.1-.8 3-1.1 4.2-.6 3.5 1.2 5.7 3.5 5.9 6.6l1.1 11.9c.1.9.1 1.8.2 2.6.1.4.1.7.1 1.2s.1.8.1.9c.2 1.2.3 2.1.1 4.2 0 2.4.1 3.4.6 4.2 1.1.3 2.2.4 4 .3 1 0 2.4-.1 3.6 0 4 .4 7.9.8 11.5 1 .7.1 1.3.1 2.1.1.4 0 .7-.3.7-.7-.5-3-.8-6.2-1.1-9.9-.4-4-.7-8.1-1.5-12-.3-1-.3-2.2.1-3.2.4-.9 1.2-2 2.3-2.7 2-1.1 4.3-.6 5.7-.3 2.1.5 3.6 1.8 4 3.5v.2c.6 3 1.5 6 1.7 9l1.1 14.2c.3 3.6.6 7.3.9 10.9.2 1.7.5 3.5.6 5 .3 1.4.4 2.8.6 4.1.2 1.3.7 2.3 1.4 3.6.2.4.5.8.6 1.3.9 1.3.8 2.8.1 4-.4 1-1.3 1.8-2.4 2.1-.9.3-1.9.4-2.8.4-3.9 0-7.2-2.2-8.4-5.5-.4-1.3-.6-2.5-.9-4-.3-1.6-.5-3.3-.7-4.8-.2-.9-.2-1.7-.4-2.5-.2-1-.4-2.1-.9-2.5l-1.3-.4c-7.4-1.1-13.4-1.6-18.1-1.4h-2c-.4 0-.7.3-.7.7 0 1.2 0 2.5-.1 3.6-.2 6.1-.3 12.3 1.9 18.1.4.9.3 1.7-.2 2.6-.5 1.1-1.7 1.9-3 2.2-.6.2-1.5.4-2.2.4-1.7-.1-3.5-.7-4.9-1.7zM133.2 303.9c-.8-1.2-.5-2.1.7-3.1-.4.4.8-.7 1.8-1.3.9-.6 2.1-1.1 3-1.4l2.1-.9c.2-.9.4-1.8.4-2.7 0-1.7-.3-3.6-.3-5.4-.3-4.6-.4-8.4-.4-11.4-.1-4.4.1-8.6 0-13-.1-5-.7-7.3 0-13.6.1-.9-.2-2.1-.4-3.2-.5 0-1-.1-1.4-.1-2.9.3-5.8-.8-8.3-2.8-.7-.5-.9-1.1-1.4-2.3-.5-1.6 1.1-3.2 2.7-3.4 7.4-1.3 15-2.1 22.5-2.8 4.4-.3 9.1.1 14 1.2 1.7.5 3 1.5 3.6 3.1.6 1.3 0 3-1.2 3.3-1.4.5-2.9.7-4.2.8-3.9.2-8 .3-12 .6-1.1.1-1.4.2-1.7.5 0 2.8 0 5.8-.2 9.5-.5 12.6-.5 21.2-.1 33.8 0 1.8.1 3.4.9 4.7 1.5.1 3.1.1 4.8.2 2.2.2 4.6.3 6.9.7 1.1.2 2 .8 2.7 1.2 1.4.3 2.9 2.9 1.8 4.3-.5.6-1.1 1.2-1.8 1.4-.8.3-2.1.5-3.4.6-3 .2-6 .4-9 .7-.9.1-1.3.3-1.6 1.1-1 1.7-3 2.7-4.9 2.4-2-.3-3.8 0-6.4.9-3.1 1.1-7-.5-9.2-3.6zM209 301.1c-3.4 3.3-7.3 5.4-11.6 6-2.2.4-4.8.6-7.2-.1-2.8-.8-5.9-1.4-8.6-3.3-2.2-1.5-4-3.8-4.5-5.7-1.2-4.3-1-6.3 1.1-8.2 1.2-1.1 2.8-1.6 4.2-1.4 3.2.7 3.1 1.6 6.7 7.1.4.6.5.9.6 1 1.5 1.6 2.9 1.9 4.7 1.2 6.6-2.4 9.3-9.7 6.3-16.6-1.4-2.8-3.2-5-6.3-7.4-1.7-1.4-3.3-2.6-4.7-3.8-3.1-2.5-5.8-5.4-7.9-8.5-3-4.3-3.6-9.6-1.9-15.5 1-3.9 3.7-6.7 7.6-8.2 2-.7 4.1-1.4 6.7-1.6 3.3-.2 5.6.4 7.5.8 1 .1 2 .4 2.7.6.4.1.9.2 1.3.4 2.4 1.3 3.8 2.5 4.4 4l1 1.8 1 2.2v.3c0-.2 0-.4.3.4l1 3.8c.1 2.1-1.2 4.1-3.1 4.8-3.8 1.2-7.7-.3-8.5-3.3l-.5-1.7c-.3-1-.9-2.8-1.3-3.6-.1-.4-.7-1.3-1.3-1.6-1.3-.3-2.7.3-5.1 1.8 0 .1-.1.1-.1.1-2 2.5-2.2 5.7-.8 9.1.5 1 1 1.9 1.7 2.8 2.6 2.5 4.2 3.9 7.8 6.3 5.7 4.1 9.1 8 11.1 12.6 3.6 8.6 2.2 16.9-4.3 23.4zM296.6 300.9c-3.9.9-6.8-.2-8.6-3.2-2.5-4.2-4.8-8.6-6-13.4l-.9-3.6c-.8-.3-1.6-.4-2.3-.4-3.4.2-7 .5-10.8.8-1.2.1-1.8.8-1.5 2.2 1 6.3.8 12.6 2.8 18.3.1.3.2.8.2 1.2.2 1.7-1.3 3.5-3.1 3.9-1.9.4-3.9.1-5.7-.6-1.3-.5-2.7-2.1-3.4-3.7-.5-1.3-.9-2.7-1.1-4.4-.5-3.7-1.2-7.4-1.5-11.1-.2-3-.3-3.1-3.1-2.4-1 .3-2.3.8-3.9 1.1-1.9.5-4.1.1-5.7-.8-2-1.1-2.8-1.8-3.1-3.3-.1-1.3.6-2.4 1.8-3.2.9-.6 2.5-1.3 4.3-1.7l7.5-1.9c.7-2.4.2-4.2-.2-6.4-.6-5.1-1.4-10.1-2-15-.4-2.7-.5-5.3-.6-7.8-.2-3.5 2-5.3 5.9-5.2 3.2.2 5.6 2 6.1 5 .2.8.4 1.8.5 2.6.8 7.1 1.5 14.2 2.3 21.1.2.7.4 1.3.5 2 .2.9.7 1.3.5 1.3 4.7-.3 9.5-.7 14.2-1-.1 0 .2-.5.2-.9l-2.5-23.7c-.2-1.3-.5-2.7-.9-4.8-.8-4.6 1.1-6.6 6-6.7 3.8-.1 6.1 1.9 6.6 5.5.9 5.3 1.6 10.6 2.3 15.9.9 7.4 1.7 14.7 2.5 21.9.6 4.9 2 9.4 4 13.2 1 1.7 1.4 3.6 1.7 5.1.4 1.7-1.1 3.7-3 4.1zM309.3 297.2c-2.2-3.2-3.5-6.4-3.5-9.8v-3.6c0-3 1-11.7 1.7-16.9.9-6.6 1.8-13.3 2.7-20.2.3-1.7.4-2.5.8-3.3.4-1.3 1.8-2.5 3.1-2.7 4.7 0 9.1-2.5 14.4-3.6 2.5-.5 5.1-1 7.6-1.5 2.9-.4 5.6.4 7.7 1.3 1.1.4 1.6 1.2 2.2 2.5.8 1.4.5 3-.8 3.9-1 .5-2.1 1.5-3.9 2-2.6.8-5.4 1.4-8.1 2.1-4.4 1.1-7.3 2.4-10.1 4.2-1.1.7-1.6 1.5-1.8 2.8-.3 1.8-.6 3.7-.7 5.7 0 .5.4.8.8.6 2.7-.8 5.6-1.8 8.6-2.7 2.4-.7 5-.7 7.1.1 1.6.5 3 2.4 2.8 4-.1 1.1-.4 2.1-1 2.8-.4.7-1.4 1.4-2.5 2-1.7.8-3.7 1.6-5.7 2.3-3.7 1.5-6.9 3.1-9.9 5-1.6.9-2.3 1.7-2.5 3.3-.4 2.4-.8 4.8-1 7.3-.4 2.8.1 5.6 1.3 7.9 1 2 1.8 2.7 3.2 2.8 3 .1 4.4-.1 6-.8 1.8-.8 2.6-1.1 3.7-1.5 2-.6 4.4.1 5.4 1.9 1.4 2.1 1.2 4.5-.5 6.2-.9.8-1.5 1.3-2.2 1.7-8.2 4.6-19.7 1.9-24.9-5.8zM356.4 301.1c-.3-6.4-.8-12.5-1.1-18.9-.5-9.9-1.4-20.1-2.9-30.6-.3-1.6-.4-3.3-.5-4.9-.2-1.6 1.4-3 3.2-3.3 3.9-.5 6.8.8 8.3 3.7.9-1.4 1.7-3.2 3-5 2.9-4.5 7.3-6.8 12.6-6.7 8.1.2 13.5 4.4 15.4 11.8 2.3 8.9 1.1 17.4-3.3 25.6-2.2 4-5.3 7-9 8.9-.9.5-1.3.7-1.5.9 2.5 3.2 5.6 5.7 8.5 8.4l7.3 6.5c1.8 1.6 1.5 3.8-.4 5.2-1.4 1-3 1.4-4.5 1.1-2.4-.6-4.6-1.8-6.9-3.8-11.7-10.7-13.3-12.3-16.3-15.5-.4-.4-.9-.3-.8.4l.9 15.8c0 1.3-.2 2.6-.5 3.9-.3.9-1.4 1.7-2.4 2.2-3.6 1.4-9-1.7-9.1-5.7zm20.1-28.3c5.3-5.7 7.5-12.6 6.7-21.3-.2-2.8-.7-5.1-1.8-6.9-.5-.9-1.3-1.1-2.2-.4-2.1 1.4-3.8 3.2-5.1 5.8-2 3.7-3.2 7.5-4.4 11.7-1.2 4.5-2 5.6-3.6 8.1 2.6 1.2 4.6 3.3 6.2 4.6 1 .7 1.5.8 2.3.2 1-.9 1.4-1.3 1.9-1.8zM411.8 302.1c-4-2.6-6.4-6.6-6.7-11.5-.2-2.4-.2-4.9 0-7.3.2-3 .4-5.5.9-8 .4-2 .1-3.4-1-4.7-1.7-2.1-1.5-3.3.5-5.2 1.3-1 2-2.2 2-3.7.3-3.1.3-6.3.5-9.5.1-1.5-.9-2.9-1.5-4.6-.5-1.5.1-3 1.3-4.1.9-.6 1.8-1.2 2.7-1.5 7-3 14.1-5.2 21.1-6.4 4.3-.7 9.1-.9 13.4 1.7 1.1.6 1.9 1.2 2.2 2 .5.9.8 2 .7 3-.1 1-1.2 1.8-2.2 2.2-2 .5-3.1.6-4.3.7-6.1.4-12.1 1.7-18.4 4.2-.7.3-1.5.8-2.5 1.3-.8 2.7-1 5.7-.8 9.1 1.7-.5 3.6-1.3 5.5-1.8 2.2-.7 4.5-1.4 6.9-1.9 1.3-.3 2.7-.1 4.7.3 1.6.4 2.6 1.7 3.1 3.4.5 1.4-.3 3.5-1.7 4.3-2.1 1.2-3 1.7-4.3 2.3-4.7 2.1-9.6 4.2-14.3 6.1-.9.4-1.4 1.2-1.6 2.5-.4 3.5-1 7.2-1.2 10.8-.3 3.2-.6 6 .7 8.7.4.9.9 1.3 1.8 1.2 2.8-.1 5.9-.9 9.3-2.4 2.2-1.1 4.7-2.2 7.2-3.2 2-.9 4.3-.4 6.1 1.2 1.7 1.5 2.1 3.9.6 5.5-.9 1-2.1 2.5-3.8 3.5-4.7 2.6-9.5 4.3-14.4 5.2-4.4.2-8.8-.9-12.5-3.4zM457.6 280.6c-.3-1.8-.8-3.8-.9-5.6-.7-8.2-.8-9.6-.1-18-.2-5 0-9.9.2-15 .1-1.5.1-3.1 1.7-4.8 1.4-1.7 3.8-2.3 6.3-1.6 2.4.4 4 1.9 4.1 4 .2 1.4 0 2.8-.6 4.8-.4 1.5-.7 3.4-.9 5.8-1 8.3-1.1 9.5-.8 17.7v.7c.3 2.7.7 4.7 1.4 6.9-.1 1.7.1 2.9-.2 4-.2 1.2-.6 2.4-1.2 3.6-1.1 2-3.8 2.6-5.9 1.3-2-1.2-2.9-2.4-3.1-3.8zm.5 16.4c-.3-2.2.6-4 2.8-5.4 2.2-1.6 5.6-1 6.9 1.2 1.7 3 2.3 5.5 1.7 7.7-.9 3.7-5.2 4.9-8.3 2.4-2.5-2-3.4-3.8-3.1-5.9z"/></svg>