<svg xmlns="http://www.w3.org/2000/svg" viewBox="0 0 47.01 52.76"><defs><style>.cls-1{fill:#cde2ad;}</style></defs><g id="Layer_2" data-name="Layer 2"><g id="Layer_1-2" data-name="Layer 1"><path class="cls-1" d="M32.6,40.47a52.09,52.09,0,0,0-6-4.5c-2-1.2-4.16-2.14-6.13-3.38a11.05,11.05,0,0,1-4.35-4.36,4.51,4.51,0,0,1-.46-2.66,1.41,1.41,0,0,1,.37-.86c-.09.08-.14.05,0,0a2.66,2.66,0,0,1,.69,0c2.37.28,4.29,1.88,6,3.23a1.72,1.72,0,0,0,2-.22,1.59,1.59,0,0,0,.42-1.84c-.79-1.94-1.37-4.55.3-6.42a3,3,0,0,1,2.24-1,2.2,2.2,0,0,1,1.87,1.77A16.93,16.93,0,0,1,29.9,27c-.2,2.29-.55,4.58-.65,6.88a13.41,13.41,0,0,0,1.68,7.58,1.3,1.3,0,0,0,2.31-1.16,19.64,19.64,0,0,1-.65-7.34c.13-2.68.52-5.35.53-8s-.08-6.09-2.17-8-5.7-1.38-7.71.78c-2.65,2.84-2.19,6.57-1,9.67l2.69-1.81c-2-1.62-4.07-3.34-6.7-4a5.06,5.06,0,0,0-4.59.68A5.1,5.1,0,0,0,12,25.92a9.23,9.23,0,0,0,3.3,7.21c2.13,1.89,4.8,2.94,7.47,4a62.48,62.48,0,0,1,8.63,4.69c.84.51,2.06-.74,1.25-1.39Z"/><path class="cls-1" d="M6.12,11.34v-.05a.8.8,0,0,0-.59-.85H5.48a1,1,0,0,0-1.19.6c-.28.56.14,1.16.42,1.6a11.65,11.65,0,0,0,1.46,1.82,13.09,13.09,0,0,0,3.76,2.62c1.32.66,2.64-1.18,1.37-2a28.45,28.45,0,0,1-3-2.22,22.08,22.08,0,0,0-2.63-2.31l.39.56v-.06l-.76,1h.06l-1-.64v0c.21,1,1.56.74,1.78-.18Z"/><path class="cls-1" d="M13.89,5.4A25.76,25.76,0,0,0,14.77,9a10.68,10.68,0,0,1,1,3,1.64,1.64,0,0,0,1.86,1.73,1.88,1.88,0,0,0,1.71-2.08A11.21,11.21,0,0,0,18,8a23.45,23.45,0,0,0-2.16-3.56c-.63-.89-2.11,0-2,1Z"/><path class="cls-1" d="M24.49,2a12,12,0,0,0,.15,4.43A2,2,0,0,0,27.14,8,2.29,2.29,0,0,0,28.92,5.5a27,27,0,0,1-.07-3.36,2,2,0,0,0-2-2.14,2.39,2.39,0,0,0-2.39,2Z"/><path class="cls-1" d="M.25,24.72c1.09,1.45,3.45,1.67,5.27,1.54a1.93,1.93,0,0,0,2-1.92c0-1.11-1-1.63-2.11-1.51-1.47.17-2.92-.26-4.42,0a1.2,1.2,0,0,0-.72,1.93Z"/><path class="cls-1" d="M3.15,37.18c.34-.23.4-.27.17-.11a.82.82,0,0,0-.33.31,1.64,1.64,0,0,0-.23.64,1.15,1.15,0,0,0,1.15,1.24c1.93-.11,3.72-1.5,5-2.84A1.54,1.54,0,0,0,9,34a1.79,1.79,0,0,0-2.5.42c-.94,1.07-2.3,1.7-3.26,2.72l.94-.34H4l.92,1,0-.14c.18-.91-1.32-1.34-1.79-.5Z"/><path class="cls-1" d="M10.14,46a1.86,1.86,0,0,0-.09.87A1.35,1.35,0,0,0,11.38,48a4.12,4.12,0,0,0,2.69-1.66c.75-.82,1.48-1.65,2.17-2.52,1-1.28-1-2.92-2.15-1.71a51.53,51.53,0,0,0-3.7,3.69l.61-.52.2-.07,1.64,1.33,0-.09c.34-1.53-2.18-1.82-2.72-.41Z"/><path class="cls-1" d="M23.4,46.44c-.2.85-.58,1.67-.74,2.54a19.77,19.77,0,0,0-.2,2.55,1.27,1.27,0,0,0,2.46.37,26,26,0,0,0,.64-2.71c.13-.89,0-1.8.06-2.7.12-1.4-1.93-1.37-2.22-.05Z"/><path class="cls-1" d="M33.88,47.22c.13.34.17.72.32,1.07a9,9,0,0,0,.51,1c.36.64.69,1.3,1,2,.88,1.81,3.82.29,3-1.53-.32-.72-.65-1.42-1-2.11a7.32,7.32,0,0,0-.66-1.07c-.25-.33-.58-.56-.86-.87-1-1.15-2.86.26-2.34,1.58Z"/><path class="cls-1" d="M38.81,36.49c-.15,2.37,3.85,2,5.54,2.07A1.66,1.66,0,0,0,46,37.15a1.4,1.4,0,0,0-1.37-1.49c-.84-.11-1.67-.24-2.51-.34a7,7,0,0,0-1.12,0,4.43,4.43,0,0,0-.81.07c-.09,0-.76.25-.36.11l1.34.59,0-.1a1.27,1.27,0,0,0-2.32.53Z"/><path class="cls-1" d="M35.75,10.87a10.1,10.1,0,0,0,2.12-2.06,8.18,8.18,0,0,0,.76-1.09,4.71,4.71,0,0,1,.52-.93,1.17,1.17,0,0,0-1-2c-2.49.41-3.62,3.42-3.92,5.45-.13.86.92,1.11,1.55.67Z"/><path class="cls-1" d="M39.82,17.52A11,11,0,0,0,43.07,17a23.12,23.12,0,0,0,3.13-1.61A1.22,1.22,0,0,0,45.43,13a24.34,24.34,0,0,0-3.45.91,10.62,10.62,0,0,0-2.79,1.74,1,1,0,0,0,.63,1.84Z"/><path class="cls-1" d="M39.86,25.59c.47.88,1.61.95,2.58.89A18.26,18.26,0,0,0,46,25.81c1.33-.35,1.37-2.35-.09-2.32a18.38,18.38,0,0,0-2.67.09,10,10,0,0,0-1.21.25,5,5,0,0,0-.65.22c-.51.22-.14-.19.36.27-.85-.79-2.46.17-1.89,1.27Z"/></g></g></svg>