<svg xmlns="http://www.w3.org/2000/svg" viewBox="0 0 3263.75 342.09"><defs><style>.cls-1{fill:#b6ddee;}</style></defs><g id="Layer_2" data-name="Layer 2"><g id="Layer_1-2" data-name="Layer 1"><path class="cls-1" d="M.3,342.09V136.32l-.3-.24V88.7Q2.63,91,5.3,93.19C75,150.86,169.55,184.37,266,206.15c61,13.78,124.15,14.74,185.89,16.6C543.81,222.6,631.08,208,715.86,183q45.42-13.41,88.84-30.72C825.41,144.05,890.37,104,938,71.46c16.5-12.78,33.31-23.38,46.68-34.37,150.66-123.73,344.14,98.74,561,134.72,143.85,23.87,377-206.87,698.82,15.84v0c29.27,22.07,76.93,54.41,141.08,47.77C2602.51,213,2720.46,111.16,2951.84,137c206.1,23,311.91,77.46,311.91,77.46V342.09Z"/></g></g></svg>