<svg xmlns="http://www.w3.org/2000/svg" viewBox="0 0 4783.92 255.49"><defs><style>.cls-1{fill:#b6ddee;}</style></defs><g id="Layer_2" data-name="Layer 2"><g id="Layer_1-2" data-name="Layer 1"><path class="cls-1" d="M4326.73,109.83c-339.15-25.84-407.33,76-725.32,98.45-94,6.64-163.89-25.7-206.78-47.78v0s-49.1-29.24-69.15-28.87c-23.63.44-50.73,17.33-76.42,37.26s-47.91,49.49-192.1,39.26c-318-22.58-386.16-124.29-725.31-98.45-190.17,14.49-322.08,41.43-393.73,59.41-53.57,10.93-145.19,24.68-198.35,4.86-78.48-29.27-178.8-219-296.24-164-20.92,9.78-44.23,21.59-68.42,34.37-69.83,32.52-165,72.59-195.41,80.81q-63.55,17.22-130.22,30.72c-124.26,25-252.18,39.6-386.87,39.76-90.5-1.87-183-2.82-272.47-16.6C248.53,157.2,109.85,123.7,7.77,66c-2.62-1.48-5.2-3-7.77-4.49v47.37l.44.24V255.49H4783.91V187.3S4628.82,132.85,4326.73,109.83Z"/></g></g></svg>