<svg xmlns="http://www.w3.org/2000/svg" viewBox="0 0 3083.71 365.86"><defs><style>.cls-1{fill:#b6ddee;}</style></defs><g id="Layer_2" data-name="Layer 2"><g id="Layer_1-2" data-name="Layer 1"><path class="cls-1" d="M1540.83,120.3S1794.38,0,2100.93,0c409.41,0,407.33,76,725.31,98.45,164.46,11.61,255.05-96,256.58-59.39,2,47.94,0,326.8,0,326.8H1541.58Z"/><path class="cls-1" d="M1540.78,120.3c-48.53,27-87.53,54.52-148.56,74.14-43.88,14.11-86.88,29.32-133.08,41q-67.86,17.22-139,30.72c-132.66,25-269.21,39.6-413,39.76-96.6-1.87-195.35-2.82-290.86-16.6-151-21.79-299-55.3-408-113-2.8-1.47-5.56-3-8.3-4.49v47.38l.47.24V365.86H1541.58Z"/></g></g></svg>