<svg xmlns="http://www.w3.org/2000/svg" viewBox="0 0 2277.61 482.41"><defs><style>.cls-1{fill:#b7deef;}</style></defs><g id="Layer_2" data-name="Layer 2"><g id="Layer_1-2" data-name="Layer 1"><path class="cls-1" d="M0,81.13S133.8-66.8,450.48,36.84c187.35,61.32,285.86,125.3,376.18,76.77C1061.42,12.34,1185.59,171,1253.61,230.1s.31,252.31.31,252.31H1Z"/><path class="cls-1" d="M2277.61,163c-32.25,35.14-58.17,70.94-98.74,96.46-29.16,18.35-57.73,38.13-88.44,53.39A938.37,938.37,0,0,1,1998,352.76c-88.16,32.56-178.92,51.52-274.48,51.72-64.2-2.42-129.83-3.67-193.3-21.59-100.33-28.34-198.72-71.93-271.14-146.95-1.86-1.93-3.69-3.88-5.51-5.84v61.63c.1.1.2.21.31.31V482.41h1022.8s1.69-172.36.4-237Z"/></g></g></svg>