<svg xmlns="http://www.w3.org/2000/svg" viewBox="0 0 28.78 57.68"><defs><style>.cls-1{fill:#b7def0;}</style></defs><g id="Layer_2" data-name="Layer 2"><g id="Layer_1-2" data-name="Layer 1"><path class="cls-1" d="M21,7.5A15.37,15.37,0,0,1,11.83,7a1.33,1.33,0,0,0-1.42,2.22,5.09,5.09,0,0,1,1.3,3.88,5,5,0,0,1-2.18,3.63A1.39,1.39,0,0,0,11.11,19a9.6,9.6,0,0,1,9.46-.26,1.38,1.38,0,0,0,1.74-.51A1.41,1.41,0,0,0,22,16.48a5.25,5.25,0,0,1-1-4,12.14,12.14,0,0,1,.54-2.32,5.92,5.92,0,0,0,.57-2.86,1.26,1.26,0,0,0-1.95-.93,5.72,5.72,0,0,0-1.67,3.11,13.4,13.4,0,0,0-.54,3.2,7.67,7.67,0,0,0,2.25,5.91l1.47-2.3a12.32,12.32,0,0,0-12.21.46L11.11,19a8,8,0,0,0,3.24-5.61,7.93,7.93,0,0,0-2.23-6.22c-.48.74-.95,1.48-1.42,2.22a13.48,13.48,0,0,0,11-.65c.77-.42.08-1.46-.65-1.28Z"/><path class="cls-1" d="M26.89.22A18.51,18.51,0,0,0,25,2.15l-1.68,2c-.71.86.48,2.29,1.38,1.51A39.18,39.18,0,0,0,28.51,2,1.2,1.2,0,0,0,28.46.41,1.19,1.19,0,0,0,26.89.22Z"/><path class="cls-1" d="M0,1c.23,1.35,1.26,2,2.3,2.73A20.21,20.21,0,0,1,5,6a1.34,1.34,0,0,0,1.87-.17A1.36,1.36,0,0,0,6.7,4,28.28,28.28,0,0,0,1.61.19C1-.21-.14.09,0,1Z"/><path class="cls-1" d="M6.34,21.32c-2.19-.14-3.47,2.25-4.57,3.81A1.4,1.4,0,0,0,1.94,27a1.37,1.37,0,0,0,1.92-.17c.52-.61,1-1.24,1.53-1.88.23-.29.43-.6.63-.91a3.24,3.24,0,0,0,.28-.4c.07-.17.21-.09-.08,0a1.18,1.18,0,0,0,1.07-1.11,1.15,1.15,0,0,0-1-1.21Z"/><path class="cls-1" d="M22.06,22.73c.2,1.18,1.2,1.9,2.07,2.62l2.62,2.11a1.22,1.22,0,0,0,1.57-1.87c-1.51-1.36-3-3-4.81-3.86a1,1,0,0,0-1.45,1Z"/><path class="cls-1" d="M25.32,48.06a2,2,0,0,1-1.65.52A10.32,10.32,0,0,1,22,48.52a10,10,0,0,1-3.38-1c-1.36-.69-2.72,1.36-1.46,2.29a1.74,1.74,0,0,1,.78,1.07,3,3,0,0,1,0,1.43,8.81,8.81,0,0,1-1.65,3.13,1.35,1.35,0,0,0,.05,1.76,1.34,1.34,0,0,0,1.75.21,6.52,6.52,0,0,1,7.16-.52,1.32,1.32,0,0,0,1.79-1.61A8.22,8.22,0,0,1,26,51.71a4.49,4.49,0,0,1,1.23-2.6,1.37,1.37,0,0,0-1.83-2,5.6,5.6,0,0,0-2.21,4.49,10.2,10.2,0,0,0,1.57,4.88l1.63-1.93a9.34,9.34,0,0,0-9.8.67l1.8,2a11.07,11.07,0,0,0,2.32-4.69,4.94,4.94,0,0,0-1.79-4.77L17.46,50a10.34,10.34,0,0,0,4.83.95c1.55-.1,3.54-.58,4.08-2.25.2-.62-.58-1.29-1.05-.67Z"/></g></g></svg>