<svg xmlns="http://www.w3.org/2000/svg" viewBox="0 0 75.85 66.17"><defs><style>.cls-1{fill:#9bb49f;}</style></defs><g id="Layer_2" data-name="Layer 2"><g id="Layer_1-2" data-name="Layer 1"><path class="cls-1" d="M5.35,63.93c-.78-1.32,0-3.08.45-4.48.6-1.76,1.3-3.51,2.06-5.24a45.23,45.23,0,0,1,5.77-9.83,38.6,38.6,0,0,1,8.48-8.22A34.8,34.8,0,0,1,34,30.47c.6-.14,1.21-.27,1.83-.38l1.11-.16c.77-.11.28,0,.11,0,.57-.05,1.14-.07,1.72-.07.08,0,1.19.09.4,0,.34,0,.66.1,1,.17.89.17-.42-.26.34.11.19.09.39.17.57.27-.6-.35.11.15.18.2-.48-.32-.2-.23-.07-.05s.44.76.12.08c.08.17.15.34.22.51a1.82,1.82,0,0,1,.15.54c.08-.74,0-.1,0,.1a5.3,5.3,0,0,1,0,.69s-.14.78,0,.29-.08.26-.09.29c0,.2-.1.39-.16.58a9.56,9.56,0,0,1-.41,1.13c-.08.19-.16.37-.25.55s-.15.3-.23.45c.17-.3.2-.34.08-.14a13.87,13.87,0,0,1-.81,1.13c-.14.16-.63.5-.06.08-.13.1-.93.58-.15.18a3.56,3.56,0,0,1-.55.25l.44-.12-.57.13c-.64.16.24,0,.21,0s-1.37-.07-.64,0-.28-.06-.35-.08l-.29-.06c-.43-.12-.39-.1.13.05a3,3,0,0,1-.54-.22l-.26-.12c-.38-.19-.35-.17.09.07-.31-.06-1.15-1-.64-.44-.12-.14-.25-.28-.36-.43s-.68-1.11-.32-.39a8,8,0,0,1-.5-1.22c-.06-.17-.1-.34-.15-.5s-.14-1,0-.19a15.18,15.18,0,0,1-.09-2.86c0-.43.09-.87.16-1.3-.13.78.14-.5.2-.7a17.23,17.23,0,0,1,1-2.77l.24-.49c.05-.1.51-.9.11-.22.24-.4.48-.8.75-1.19a25.16,25.16,0,0,1,1.94-2.51c.4-.44.82-.87,1.23-1.3-.46.48-.11.1,0,0l.91-.81a31.92,31.92,0,0,1,2.94-2.28c.5-.35,1-.69,1.54-1l.72-.45c.75-.46-.38.2.34-.19,1.21-.66,2.44-1.3,3.72-1.89,2.55-1.17,5.22-2.25,7.91-3.22l2.05-.71.68-.23.69-.22.14,0c1.4-.43,2.81-.84,4.23-1.24,1.75-.48,3.12-1.83,2.49-3.28A3.9,3.9,0,0,0,64.68,3,85.16,85.16,0,0,0,47,8.21a44.47,44.47,0,0,0-13.92,9.44,22.06,22.06,0,0,0-6.38,12.83C26.16,35.43,28.22,41,35,42.94a12.23,12.23,0,0,0,9.77-1.25,11.2,11.2,0,0,0,4.32-6.11,8.21,8.21,0,0,0-.63-7c-1.52-2.5-4.78-3.79-8.3-4.07-6.16-.5-12.58,2-17.33,4.74A45.9,45.9,0,0,0,11,38.77,48.69,48.69,0,0,0,2.9,51.69,49.54,49.54,0,0,0,.53,58.5C-.14,61-.68,64,2.2,65.75,4,66.88,6.26,65.5,5.35,63.93Z"/><path class="cls-1" d="M38.17,6.27a8.9,8.9,0,0,0,4.26.93c1.38.09,2.77.22,4.15.25,2.78,0,5.58.1,8.37.06s5.41-.14,8.12-.27c1.34-.06,2.69-.14,4-.24a28.6,28.6,0,0,1,4.23-.26Q69.75,3.84,68.14,1a22,22,0,0,0-3.21,4C64,6.23,63.24,7.54,62.41,8.84Q60,12.65,57.33,16.38a2.6,2.6,0,0,0,1.4,4,4.82,4.82,0,0,0,5.35-1.05q3.15-3.51,6.13-7.09c1-1.18,1.93-2.35,2.8-3.57a18.35,18.35,0,0,0,2.7-4.43A3,3,0,0,0,74.09.69a6,6,0,0,0-5-.27c.58-.2-.06-.07-.35,0l-1,.15L65.77.77,63.87,1l-1,.11c-.71.08.54,0-.18,0-2.71.24-5.41.44-8.12.66l-7.94.68c-1.43.12-2.85.33-4.27.53s-3.06.33-4.14,1.15a1.27,1.27,0,0,0,0,2.13Z"/></g></g></svg>