<svg xmlns="http://www.w3.org/2000/svg" viewBox="0 0 54.66 55.66"><defs><style>.cls-1{fill:#7f79b5;}</style></defs><g id="Layer_2" data-name="Layer 2"><g id="Layer_1-2" data-name="Layer 1"><path class="cls-1" d="M15.47,54.07a38.9,38.9,0,0,0-1.94-6.21q-1.37-2.91-3-5.7C8.66,38.91,6,35.89,5.12,32.21A2.84,2.84,0,0,1,5,31.26a7.48,7.48,0,0,1,0-1c0,.47,0,0,0-.16s.09-.39.15-.58l.15-.45c-.17.46.12-.19.14-.24s.39-.6.18-.32.25-.26.24-.26l.32-.3c-.38.32,0,.06,0,0,.37-.42-.17.06.11-.08,0,0,.51-.16.24-.1a1.57,1.57,0,0,1,1.1.13,2.69,2.69,0,0,1,1,.87,6.09,6.09,0,0,1,.85,2.09,40.68,40.68,0,0,1,.95,5.6c.29,2.5.47,5,.56,7.52,0,1.25,0,2.51,0,3.77s.11,2.64,0,3.94c-.18,2.64,4.17,3.27,4.66.63A105.37,105.37,0,0,1,18.41,41c.94-3.15,2.29-6.31,4.7-8.5a7.29,7.29,0,0,1,1.66-1.15,3.48,3.48,0,0,1,.89-.31c-.23,0-.33-.3-.08.06-.1-.14,0-.18.06.13-.05-.14,0-.27,0,.13a3,3,0,0,1,0,.94A12,12,0,0,1,25,34.63a30.14,30.14,0,0,1-4.91,8.23c-1.22,1.53-2.52,3-3.82,4.48a16,16,0,0,1-4.1,3.74l3.63,1.47c-1.34-4-2.62-8-4-12C10.62,36.82,8.94,33,8.71,29.05L6.77,31.6H6.09q-.3-.18-.06,0c.28.14-.07,0-.09-.09,0,.23.2.34.26.58.24.93.5,1.84.71,2.77.45,2,.8,4,1.18,6a47.85,47.85,0,0,0,3.45,11.72,2.7,2.7,0,0,0,4.64,0A69.72,69.72,0,0,1,28.7,33.7L24.53,32c0,.5,0-.1.17-.22a2.35,2.35,0,0,0-.83,3.17,2.38,2.38,0,0,0,3.16.83A4.22,4.22,0,0,0,29.42,32a2.47,2.47,0,0,0-4.18-1.73A73.23,73.23,0,0,0,11.54,49.8h4.64c-1.77-3.84-2.51-8.44-3.32-12.71C12.1,33,11.32,25.26,5.36,26.5a2.65,2.65,0,0,0-1.94,2.55c.44,4.32,2,8.39,3.39,12.47S9.65,49.74,11,53.86a2.5,2.5,0,0,0,3.62,1.48,18.87,18.87,0,0,0,4.89-4.28c1.34-1.51,2.67-3,3.93-4.6a35.88,35.88,0,0,0,6.41-11c.74-2.21,1.18-4.74-.08-6.86a5,5,0,0,0-6.37-2c-4.24,1.66-6.9,5.72-8.58,9.76-1.93,4.66-2.81,9.79-3.64,14.75l4.65.63c.07-1.32.31-2.61.34-3.94s0-2.64,0-4c-.08-2.52-.3-5-.63-7.52-.57-4.3-1-10-5.1-12.56a6.67,6.67,0,0,0-6.92,0A7.85,7.85,0,0,0,.18,28.93c-.88,4.72,1.68,8.71,4.35,12.35,1.59,2.16,3.14,4.35,4.54,6.64.71,1.16,1.4,2.3,2.18,3.43s1.57,2.32,2.28,3.53a1.06,1.06,0,0,0,1.94-.81Z"/><path class="cls-1" d="M46.8,21.39c.28,0,.33,0,.16-.16l-.35-.58c-.23-.39-.47-.78-.72-1.15l-1.52-2.28c-1-1.47-2-2.91-3-4.4S39.51,9.9,38.66,8.4a11.52,11.52,0,0,1-1-2.07,7.19,7.19,0,0,1-.32-1.21.72.72,0,0,1,0-.33c0-.45,0-.42-.12.07l-.81.82-.52.08h.24c-.16-.08.13.05.18.06a2.2,2.2,0,0,1,.66.26,5.09,5.09,0,0,1,1.42,1.13A16.47,16.47,0,0,1,40.83,11,79.37,79.37,0,0,1,44.9,21a2.26,2.26,0,0,0,4.36-1.21,26.36,26.36,0,0,1,0-9.62,28.12,28.12,0,0,1,1.43-5.07c.13-.34.16-.41.09-.22A3.62,3.62,0,0,1,51,4.43c.22-.47.11,0-.12,0a1,1,0,0,1-.74-.07.56.56,0,0,1-.24-.24c.12.23.14.25.07,0a3.18,3.18,0,0,1,.1.33,2,2,0,0,1,.08.33c0-.21,0-.19,0,.09s0,.75,0,1.12a13,13,0,0,1-.34,2.06,29.05,29.05,0,0,1-1.47,4.3c-1.27,3-2.8,5.94-3.54,9.14l4.46,1.23c.93-4.69,1.9-9.45,4.18-13.7l-3.76-1a38.37,38.37,0,0,1-3.08,11.55A2.07,2.07,0,0,0,48,22.15a2.13,2.13,0,0,0,2.55-1.44,52.21,52.21,0,0,0,3-12.11,2,2,0,0,0-1.17-2.38,2,2,0,0,0-2.51.83c-2.87,4.34-4,9.49-5.16,14.5a2.31,2.31,0,0,0,4.46,1.23c1.53-5.91,5.37-11.22,5.42-17.48a6,6,0,0,0-1.42-4.15A3.66,3.66,0,0,0,48.63.56,7.26,7.26,0,0,0,46.1,4.5a29,29,0,0,0-1.27,4.78A32.4,32.4,0,0,0,44.9,21l4.36-1.21A97.43,97.43,0,0,0,45.11,9.48C43.7,6.65,41.88,3.42,38.89,2c-1.69-.8-4-1.35-5.41.33s-.54,4,.16,5.71c1.39,3.34,3.85,6.26,6.06,9.09a47,47,0,0,0,4,4.64c1.13,1.1,2.9,2.83,4.44,1.41.94-.87-.33-2.59-1.39-1.81Z"/></g></g></svg>