<svg xmlns="http://www.w3.org/2000/svg" viewBox="0 0 65.31 59.32"><defs><style>.cls-1{fill:#cde2ad;}</style></defs><g id="Layer_2" data-name="Layer 2"><g id="Layer_1-2" data-name="Layer 1"><path class="cls-1" d="M62.89,5.29A57.18,57.18,0,0,0,52.16,1.16C48.29.13,43.4-.71,39.57.89c-2.46,1-2.2,4.23-.42,5.68A17.22,17.22,0,0,0,44.29,8.9a41.42,41.42,0,0,0,5.26,1.37c3.59.73,7.16,1.44,10.77,2.23,4.82,1.06,7-5,2.57-7.21Z"/><path class="cls-1" d="M44.05,40.93a19.73,19.73,0,0,0-5.15-6.69,66.32,66.32,0,0,0-6-3.89A3.14,3.14,0,0,0,28.76,35a40.37,40.37,0,0,1,3.4,5.1,35.91,35.91,0,0,0,4.6,5.69c3.24,3.63,9.75-.31,7.29-4.82Z"/><path class="cls-1" d="M3.57,37.22C-.16,39-.24,42.71.17,46.29c.36,3.18,1.5,6.37,2.31,9.46a4.52,4.52,0,0,0,5.2,3.48A4.51,4.51,0,0,0,11.16,54c-.28-2.39-.57-4.79-.85-7.19a23,23,0,0,0-.69-3.38c-.12-.46-.23-.94-.38-1.39-.27-.78.08.14-.12.56l-1.23,1.8.27-.26c3.44-3.22-.18-9.06-4.59-7Z"/></g></g></svg>