<svg xmlns="http://www.w3.org/2000/svg" viewBox="0 0 2061.86 444.67"><defs><style>.cls-1{fill:#b6ddee;}</style></defs><g id="Layer_2" data-name="Layer 2"><g id="Layer_1-2" data-name="Layer 1"><path class="cls-1" d="M2061.86,81.13S1928.06-66.8,1611.38,36.84C1424,98.16,1337.07,125.2,1235.2,113.61s-109.63-74.37-192.26-5.67c-36.91,30.67-3.88,336.73-3.88,336.73h1022.8Z"/><path class="cls-1" d="M1042.94,107.94c-32.26,35.13-77.11,88.22-117.67,113.74-29.17,18.35-57.74,38.13-88.45,53.39A936.31,936.31,0,0,1,744.43,315C656.27,347.58,565.52,366.54,470,366.74c-64.2-2.42-129.83-3.67-193.31-21.59C176.32,316.81,77.94,273.22,5.51,198.2c-1.85-1.92-3.69-3.88-5.51-5.84V254c.11.1.21.21.31.31V444.67H1039.06Z"/></g></g></svg>