<svg xmlns="http://www.w3.org/2000/svg" viewBox="0 0 3263.75 314.93"><defs><style>.cls-1{fill:#b6ddee;}</style></defs><g id="Layer_2" data-name="Layer 2"><g id="Layer_1-2" data-name="Layer 1"><path class="cls-1" d="M.3,314.93V109.15l-.3-.24V61.54Q2.63,63.8,5.3,66C75,123.7,169.55,157.2,266,179c61,13.78,124.15,14.73,185.89,16.6,91.89-.16,179.16-14.73,263.94-39.76q45.42-13.41,88.84-30.72C825.41,116.89,890.37,76.82,938,44.3c16.5-12.78,32.41-24.59,46.68-34.37C1064.81-45,1133.25,144.68,1186.8,174c36.26,19.82,98.76,6.07,135.32-4.86,48.88-18,101.69-59.77,231.43-74.26,231.38-25.84,243.65,90.72,460.58,113.3,98.37,10.23,113.53-19.33,131-39.26s36-36.82,52.14-37.26c13.68-.37,47.18,28.87,47.18,28.87v0c29.27,22.08,76.93,54.42,141.08,47.78,216.94-22.46,334.89-124.29,566.27-98.45,206.1,23,311.91,77.47,311.91,77.47V314.93Z"/></g></g></svg>