<svg xmlns="http://www.w3.org/2000/svg" viewBox="0 0 2282 224.1"><defs><style>.cls-1{fill:#b6ddee;}</style></defs><g id="Layer_2" data-name="Layer 2"><g id="Layer_1-2" data-name="Layer 1"><path class="cls-1" d="M2281.41,42.31c-35.92,20-64.8,40.37-110,54.89-32.49,10.45-64.31,21.7-98.52,30.38q-50.22,12.75-102.91,22.74c-98.2,18.53-199.29,29.32-305.73,29.43-71.52-1.38-144.62-2.08-215.32-12.29-111.76-16.12-221.35-40.93-302-83.62-2.07-1.09-132.29-62.81-415.29-81.4C479-14.16,428.43,58.7,191.73,75.32,92.06,82.32,28.84,30.8,8.17,26.05A78.82,78.82,0,0,0,0,24.43L.35,224.1H2282Z"/></g></g></svg>