<svg xmlns="http://www.w3.org/2000/svg" viewBox="0 0 4783.92 250.57"><defs><style>.cls-1{fill:#b6ddee;}</style></defs><g id="Layer_2" data-name="Layer 2"><g id="Layer_1-2" data-name="Layer 1"><path class="cls-1" d="M4326.73,104.9c-339.15-25.84-407.33,76-725.32,98.45-94,6.64-163.89-25.7-206.78-47.77v0s-50.28-22.08-69.15-28.88c-371.63-134-515.55,191.58-835.61,39.13C2090.74-24.29,1678.08-20.89,1443.33,29c-22.59,4.8-233.46,103-263.83,111.19q-63.55,17.22-130.22,30.71c-124.26,25-252.18,30.61-386.87,30.76-90.5-1.86-183-2.82-272.47-16.6C248.53,163.28,109.85,118.77,7.77,61.1c-2.62-1.48-5.2-3-7.77-4.49V104c.15.07.29.16.44.24V250.57H4783.91v-68.2S4628.82,127.92,4326.73,104.9Z"/></g></g></svg>